<svg width="64" height="64" viewBox="0 0 64 64" xmlns="http://www.w3.org/2000/svg">
  <defs>
    <linearGradient id="cloudGradient" x1="0%" y1="0%" x2="100%" y2="100%">
      <stop offset="0%" style="stop-color:#7aebbe;stop-opacity:1" />
      <stop offset="100%" style="stop-color:#e040fb;stop-opacity:1" />
    </linearGradient>
  </defs>
  
  <!-- Cloud shape -->
  <path d="M 20 32 Q 16 32 16 36 Q 16 40 20 40 L 44 40 Q 48 40 48 36 Q 48 32 44 32 Q 44 24 36 24 Q 32 24 30 26 Q 28 22 24 22 Q 20 22 20 26 Q 20 32 20 32 Z" 
        fill="none" stroke="url(#cloudGradient)" stroke-width="2.5"/>
  
  <!-- Sparkles -->
  <path d="M 26 16 L 27 18 L 29 17 L 28 19 L 30 20 L 28 21 L 29 23 L 27 22 L 26 24 L 25 22 L 23 23 L 24 21 L 22 20 L 24 19 L 23 17 L 25 18 Z" fill="#ffcc00">
    <animateTransform attributeName="transform" type="rotate" from="0 26 20" to="360 26 20" dur="4s" repeatCount="indefinite"/>
  </path>
  
  <path d="M 42 18 L 43 19.5 L 44.5 18.5 L 44 20 L 45.5 20.5 L 44 21 L 44.5 22.5 L 43 21.5 L 42 23 L 41 21.5 L 39.5 22.5 L 40 21 L 38.5 20.5 L 40 20 L 39.5 18.5 L 41 19.5 Z" fill="#7aebbe" opacity="0.8">
    <animateTransform attributeName="transform" type="rotate" from="0 42 20.5" to="360 42 20.5" dur="3s" repeatCount="indefinite"/>
  </path>
  
  <path d="M 50 30 L 50.5 31 L 51.5 30.5 L 51.5 31.5 L 52.5 32 L 51.5 32.5 L 51.5 33.5 L 50.5 33 L 50 34 L 49.5 33 L 48.5 33.5 L 48.5 32.5 L 47.5 32 L 48.5 31.5 L 48.5 30.5 L 49.5 31 Z" fill="#e040fb" opacity="0.7">
    <animateTransform attributeName="transform" type="rotate" from="0 50 32" to="360 50 32" dur="5s" repeatCount="indefinite"/>
  </path>
</svg>
