<svg width="64" height="64" viewBox="0 0 64 64" xmlns="http://www.w3.org/2000/svg">
  <defs>
    <linearGradient id="ollamaGradient" x1="0%" y1="0%" x2="100%" y2="100%">
      <stop offset="0%" style="stop-color:#e040fb;stop-opacity:1" />
      <stop offset="50%" style="stop-color:#7aebbe;stop-opacity:1" />
      <stop offset="100%" style="stop-color:#e040fb;stop-opacity:1" />
    </linearGradient>
  </defs>
  
  <!-- Brain outline -->
  <path d="M 24 16 Q 16 16 16 24 Q 16 28 18 32 Q 16 36 16 40 Q 16 48 24 48 L 40 48 Q 48 48 48 40 Q 48 36 46 32 Q 48 28 48 24 Q 48 16 40 16 Q 36 16 32 18 Q 28 16 24 16 Z" 
        fill="none" stroke="url(#ollamaGradient)" stroke-width="2.5"/>
  
  <!-- Neural connections -->
  <circle cx="24" cy="24" r="3" fill="#e040fb"/>
  <circle cx="32" cy="28" r="3" fill="#7aebbe"/>
  <circle cx="40" cy="24" r="3" fill="#e040fb"/>
  <circle cx="24" cy="40" r="3" fill="#7aebbe"/>
  <circle cx="40" cy="40" r="3" fill="#7aebbe"/>
  
  <line x1="24" y1="24" x2="32" y2="28" stroke="#e040fb" stroke-width="1.5" opacity="0.6"/>
  <line x1="32" y1="28" x2="40" y2="24" stroke="#7aebbe" stroke-width="1.5" opacity="0.6"/>
  <line x1="24" y1="24" x2="24" y2="40" stroke="#e040fb" stroke-width="1.5" opacity="0.6"/>
  <line x1="40" y1="24" x2="40" y2="40" stroke="#7aebbe" stroke-width="1.5" opacity="0.6"/>
  <line x1="32" y1="28" x2="24" y2="40" stroke="#e040fb" stroke-width="1.5" opacity="0.6"/>
  <line x1="32" y1="28" x2="40" y2="40" stroke="#7aebbe" stroke-width="1.5" opacity="0.6"/>
</svg>
